# xmcd
#
# Track frame offsets:
#	150
#	18105
#	33630
#	51655
#	58650
#	75325
#	87270
#	101065
#	114705
#	127520
#	141855
#	159825
#	173592
#	184070
#	196057
#	204475
#	225305
#	242085
#
# Disc length: 3393 seconds
#
# Revision: 1
# Processed by: cddbd v1.5.2PL0 Copyright (c) Steve Scherf et al.
# Submitted via: audiograbber 1.83.01
#
DISCID=de0d3f12
DTITLE=Lightnin' Hopkins - Lonesome Dog Blues
DYEAR=1993
DGENRE=Blues
TTITLE0=Found My Baby Crying
TTITLE1=Love Me This Morning
TTITLE2=Gambler's Blues
TTITLE3=Play With Your Poodle
TTITLE4=Fishing Clothes
TTITLE5=Rock Me Mama
TTITLE6=Breakfast Time
TTITLE7=Lovin' Arms
TTITLE8=I'm Comin' Home
TTITLE9=Ride In Your New Automobile
TTITLE10=Letter To My (Back Door Friend)
TTITLE11=Last Affair
TTITLE12=Mr. Charlie, Part 1
TTITLE13=Mr. Charlie, Part 2
TTITLE14=You're Too Fast
TTITLE15=Morning Blues
TTITLE16=Wig Wearing Woman
TTITLE17=Lonesome Dog Blues
EXTD=
EXTT0=
EXTT1=
EXTT2=
EXTT3=
EXTT4=
EXTT5=
EXTT6=
EXTT7=
EXTT8=
EXTT9=
EXTT10=
EXTT11=
EXTT12=
EXTT13=
EXTT14=
EXTT15=
EXTT16=
EXTT17=
PLAYORDER=
